<svg xmlns="http://www.w3.org/2000/svg" version="1.1" xmlns:xlink="http://www.w3.org/1999/xlink" xmlns:svgjs="http://svgjs.dev/svgjs" width="1000" height="1000"><g clip-path="url(#SvgjsClipPath1128)"><rect width="1000" height="1000" fill="#ffffff"></rect><g transform="matrix(1.953125,0,0,1.953125,0,0)"><svg xmlns="http://www.w3.org/2000/svg" version="1.1" xmlns:xlink="http://www.w3.org/1999/xlink" xmlns:svgjs="http://svgjs.dev/svgjs" width="512" height="512"><svg version="1.0" xmlns="http://www.w3.org/2000/svg" xmlns:xlink="http://www.w3.org/1999/xlink" width="512" height="512" viewBox="0 0 512 512">
    <svg id="global-svg-defs" version="1.0" xmlns="http://www.w3.org/2000/svg" width="0" height="0" viewBox="0 0 340.000000 250.000000" preserveAspectRatio="xMidYMid meet" color-interpolation-filters="sRGB" class="el-tooltip" style="margin: auto;" xmlns:xlink="http://www.w3.org/1999/xlink">
    <defs>
      <pattern id="watermark" patternUnits="userSpaceOnUse" width="100%" height="100%">
        <image xlink:href="https://www.logoai.com/img/watermark/LOGOAI-watermark.png" x="0" y="0" width="100%" height="100%">
        </image>
      </pattern>
                    <linearGradient id="92" x1="0%" y1="0%" x2="100%" y2="0%">
          <stop offset="0%" stop-color="#fa71cd"></stop>
          <stop offset="100%" stop-color="#9b59b6"></stop>
        </linearGradient>
              <linearGradient id="93" x1="0%" y1="0%" x2="100%" y2="0%">
          <stop offset="0%" stop-color="#f9d423"></stop>
          <stop offset="100%" stop-color="#f83600"></stop>
        </linearGradient>
              <linearGradient id="94" x1="0%" y1="0%" x2="100%" y2="0%">
          <stop offset="0%" stop-color="#0064d2"></stop>
          <stop offset="100%" stop-color="#1cb0f6"></stop>
        </linearGradient>
              <linearGradient id="95" x1="0%" y1="0%" x2="100%" y2="0%">
          <stop offset="0%" stop-color="#f00978"></stop>
          <stop offset="100%" stop-color="#3f51b1"></stop>
        </linearGradient>
              <linearGradient id="96" x1="0%" y1="0%" x2="100%" y2="0%">
          <stop offset="0%" stop-color="#7873f5"></stop>
          <stop offset="100%" stop-color="#ec77ab"></stop>
        </linearGradient>
              <linearGradient id="97" x1="0%" y1="0%" x2="100%" y2="0%">
          <stop offset="0%" stop-color="#f9d423"></stop>
          <stop offset="100%" stop-color="#e14fad"></stop>
        </linearGradient>
              <linearGradient id="98" x1="0%" y1="0%" x2="100%" y2="0%">
          <stop offset="0%" stop-color="#009efd"></stop>
          <stop offset="100%" stop-color="#2af598"></stop>
        </linearGradient>
              <linearGradient id="99" x1="0%" y1="0%" x2="100%" y2="0%">
          <stop offset="0%" stop-color="#ffcc00"></stop>
          <stop offset="100%" stop-color="#00b140"></stop>
        </linearGradient>
              <linearGradient id="100" x1="0%" y1="0%" x2="100%" y2="0%">
          <stop offset="0%" stop-color="#d51007"></stop>
          <stop offset="100%" stop-color="#ff8177"></stop>
        </linearGradient>
              <linearGradient id="102" x1="0%" y1="0%" x2="100%" y2="0%">
          <stop offset="0%" stop-color="#a2b6df"></stop>
          <stop offset="100%" stop-color="#0c3483"></stop>
        </linearGradient>
              <linearGradient id="103" x1="0%" y1="0%" x2="100%" y2="0%">
          <stop offset="0%" stop-color="#7ac5d8"></stop>
          <stop offset="100%" stop-color="#eea2a2"></stop>
        </linearGradient>
              <linearGradient id="104" x1="0%" y1="0%" x2="100%" y2="0%">
          <stop offset="0%" stop-color="#00ecbc"></stop>
          <stop offset="100%" stop-color="#007adf"></stop>
        </linearGradient>
          <clipPath id="SvgjsClipPath1128"><rect width="1000" height="1000" x="0" y="0" rx="150" ry="150"></rect></clipPath></defs>
  </svg>
    <rect x="0" y="0" width="100%" height="100%" fill="transparent" fill-opacity="1"></rect>
    <svg data-v-0dd9719b="" version="1.0" xmlns="http://www.w3.org/2000/svg" xmlns:xlink="http://www.w3.org/1999/xlink" width="100%" height="100%" viewBox="0 0 100 100" preserveAspectRatio="xMidYMid meet" color-interpolation-filters="sRGB" style="margin: auto;"> <rect data-v-0dd9719b="" x="0" y="0" width="100%" height="100%" fill="#ffffff" fill-opacity="1" class="background" style="display: none;"></rect> <rect data-v-0dd9719b="" x="0" y="0" width="100%" height="100%" fill="url(#watermark)" fill-opacity="1" class="watermarklayer" style="display: none;"></rect> <g data-v-0dd9719b="" fill="#333" class="iconsvg-imagesvg"><rect fill="#333" fill-opacity="0" stroke-width="2" x="0" y="0" width="100" height="100" class="image-rect"></rect> <svg viewBox="0 0 60 47.65195015606013" x="0" y="0" width="100" height="100" class="image-svg-svg bn" style="overflow: visible;"><g hollow-target="iconBnFill" mask="url(#4b4b235b-6d56-4224-be22-ce7b494140be)"><g><svg viewBox="0 0 65 51.623" xmlns="http://www.w3.org/2000/svg" style="overflow: visible;" width="60" height="47.65195015606013" x="0" y="0" filtersec="colorsb3678895868" filter="url(#QhQvkV8qQJWPQjBpJ6tMT)"><g transform="scale(1, 1) skewX(0)"><path d="M32.5 0C14.58 0 0 11.579 0 25.811s14.58 25.812 32.5 25.812S65 40.043 65 25.811C65 11.58 50.42 0 32.5 0" fill="#000" fill-rule="evenodd"></path></g><defs><filter id="QhQvkV8qQJWPQjBpJ6tMT"><feColorMatrix type="matrix" values="0 0 0 0 0.19921875  0 0 0 0 0.19921875  0 0 0 0 0.19921875  0 0 0 1 0"></feColorMatrix></filter></defs></svg></g> <g filter="url(#colors6024271087)"><svg xmlns="http://www.w3.org/2000/svg" xmlns:xlink="http://www.w3.org/1999/xlink" viewBox="0 0 52.27734375 51.609375" width="45" height="35.73896" x="7.5" y="5.956495078030066" class="image-svg-letter"><path transform="translate(0 51.609375)" d="M52.28 0L37.09 0L34.56-9.63L17.86-9.63L15.26 0L0 0L16.77-51.61L35.30-51.61L52.28 0ZM20.74-21.02L31.68-21.02L29.46-29.46Q28.69-32.27 27.58-36.74Q26.47-41.20 26.12-43.14L26.12-43.14Q25.80-41.34 24.87-37.23Q23.94-33.12 20.74-21.02L20.74-21.02Z"></path></svg></g></g><mask id="4b4b235b-6d56-4224-be22-ce7b494140be"><g fill="white"><svg viewBox="0 0 65 51.623" xmlns="http://www.w3.org/2000/svg" style="overflow: visible;" width="60" height="47.65195015606013" x="0" y="0" filtersec="colorsb3678895868"><g transform="scale(1, 1) skewX(0)"><path d="M32.5 0C14.58 0 0 11.579 0 25.811s14.58 25.812 32.5 25.812S65 40.043 65 25.811C65 11.58 50.42 0 32.5 0" fill-rule="evenodd"></path></g><defs></defs></svg></g> <g fill="black"><svg xmlns="http://www.w3.org/2000/svg" xmlns:xlink="http://www.w3.org/1999/xlink" viewBox="0 0 52.27734375 51.609375" width="45" height="35.73896" x="7.5" y="5.956495078030066" class="image-svg-letter"><path transform="translate(0 51.609375)" d="M52.28 0L37.09 0L34.56-9.63L17.86-9.63L15.26 0L0 0L16.77-51.61L35.30-51.61L52.28 0ZM20.74-21.02L31.68-21.02L29.46-29.46Q28.69-32.27 27.58-36.74Q26.47-41.20 26.12-43.14L26.12-43.14Q25.80-41.34 24.87-37.23Q23.94-33.12 20.74-21.02L20.74-21.02Z"></path></svg></g></mask></svg> <defs><filter id="colors6024271087"><feColorMatrix type="matrix" values="0 0 0 0 0.19921875  0 0 0 0 0.19921875  0 0 0 0 0.19921875  0 0 0 1 0" class="icon-fecolormatrix"></feColorMatrix></filter> <filter id="colorsf2655148304"><feColorMatrix type="matrix" values="0 0 0 0 0.99609375  0 0 0 0 0.99609375  0 0 0 0 0.99609375  0 0 0 1 0" class="icon-fecolormatrix"></feColorMatrix></filter> <filter id="colorsb3678895868"><feColorMatrix type="matrix" values="0 0 0 0 0  0 0 0 0 0  0 0 0 0 0  0 0 0 1 0" class="icon-fecolormatrix"></feColorMatrix></filter></defs></g><defs v-gra="od"></defs></svg>
  </svg></svg></g></g></svg>